v 1 3 1
v 1 3 2
v 1 4 2
v 1 4 1
v 2 3 1
v 2 3 2
v 2 4 1
v 2 4 2
v 1 3 3
v 1 4 3
v 2 3 3
v 2 4 3
v 1 3 4
v 1 4 4
v 2 3 4
v 2 4 4
v 1 3 5
v 1 4 5
v 2 3 5
v 2 4 5
v 1 3 6
v 1 4 6
v 2 3 6
v 2 4 6
v 3 3 1
v 3 3 2
v 3 4 1
v 3 4 2
v 3 3 3
v 3 3 4
v 3 4 3
v 3 4 4
v 3 3 5
v 3 3 6
v 3 4 5
v 3 4 6
v 3 1 1
v 3 1 2
v 3 2 2
v 3 2 1
v 4 1 1
v 4 1 2
v 4 2 2
v 4 2 1
v 3 1 3
v 3 2 3
v 4 1 3
v 4 2 3
v 3 1 4
v 3 2 4
v 4 1 4
v 4 2 4
v 3 1 5
v 3 2 5
v 4 1 5
v 4 2 5
v 3 1 6
v 3 2 6
v 4 1 6
v 4 2 6
v 4 3 2
v 4 3 1
v 4 3 4
v 4 3 3
v 4 3 6
v 4 3 5
v 4 4 1
v 4 4 3
v 4 4 2
v 4 4 5
v 4 4 4
v 4 4 6
v 3 5 2
v 3 5 1
v 4 5 2
v 4 5 1
v 3 5 4
v 3 5 3
v 4 5 4
v 4 5 3
v 3 5 6
v 3 5 5
v 4 5 6
v 4 5 5
v 3 6 2
v 3 6 1
v 4 6 2
v 4 6 1
v 3 6 3
v 4 6 3
v 3 6 4
v 4 6 4
v 3 6 5
v 4 6 5
v 3 6 6
v 4 6 6
v 5 3 1
v 5 3 2
v 5 4 1
v 5 4 2
v 5 3 3
v 5 3 4
v 5 4 3
v 5 4 4
v 5 3 5
v 5 3 6
v 5 4 5
v 5 4 6
v 6 3 1
v 6 3 2
v 6 4 2
v 6 4 1
v 6 3 3
v 6 4 3
v 6 3 4
v 6 4 4
v 6 3 5
v 6 4 5
v 6 3 6
v 6 4 6
vn -1 0 0
vn 1 0 0
vn 0 -1 0
vn 0 1 0
vn 0 0 -1
vn 0 0 1
f 1//1 2//1 3//1
f 1//1 3//1 4//1
f 1//3 5//3 6//3
f 1//3 6//3 2//3
f 3//4 7//4 4//4
f 3//4 8//4 7//4
f 1//5 4//5 7//5
f 1//5 7//5 5//5
f 2//1 9//1 10//1
f 2//1 10//1 3//1
f 8//2 11//2 6//2
f 8//2 12//2 11//2
f 2//3 6//3 11//3
f 2//3 11//3 9//3
f 10//4 8//4 3//4
f 10//4 12//4 8//4
f 9//1 13//1 14//1
f 9//1 14//1 10//1
f 9//3 11//3 15//3
f 9//3 15//3 13//3
f 14//4 12//4 10//4
f 14//4 16//4 12//4
f 13//1 17//1 18//1
f 13//1 18//1 14//1
f 16//2 19//2 15//2
f 16//2 20//2 19//2
f 13//3 15//3 19//3
f 13//3 19//3 17//3
f 18//4 16//4 14//4
f 18//4 20//4 16//4
f 17//1 21//1 22//1
f 17//1 22//1 18//1
f 17//3 19//3 23//3
f 17//3 23//3 21//3
f 22//4 20//4 18//4
f 22//4 24//4 20//4
f 23//6 22//6 21//6
f 23//6 24//6 22//6
f 5//3 25//3 26//3
f 5//3 26//3 6//3
f 8//4 27//4 7//4
f 8//4 28//4 27//4
f 5//5 7//5 27//5
f 5//5 27//5 25//5
f 26//6 8//6 6//6
f 26//6 28//6 8//6
f 11//3 29//3 30//3
f 11//3 30//3 15//3
f 16//4 31//4 12//4
f 16//4 32//4 31//4
f 11//5 12//5 31//5
f 11//5 31//5 29//5
f 30//6 16//6 15//6
f 30//6 32//6 16//6
f 19//3 33//3 34//3
f 19//3 34//3 23//3
f 24//4 35//4 20//4
f 24//4 36//4 35//4
f 19//5 20//5 35//5
f 19//5 35//5 33//5
f 34//6 24//6 23//6
f 34//6 36//6 24//6
f 37//1 38//1 39//1
f 37//1 39//1 40//1
f 44//2 42//2 41//2
f 44//2 43//2 42//2
f 37//3 41//3 42//3
f 37//3 42//3 38//3
f 37//5 40//5 44//5
f 37//5 44//5 41//5
f 38//1 45//1 46//1
f 38//1 46//1 39//1
f 43//2 47//2 42//2
f 43//2 48//2 47//2
f 38//3 42//3 47//3
f 38//3 47//3 45//3
f 46//4 43//4 39//4
f 46//4 48//4 43//4
f 45//1 49//1 50//1
f 45//1 50//1 46//1
f 48//2 51//2 47//2
f 48//2 52//2 51//2
f 45//3 47//3 51//3
f 45//3 51//3 49//3
f 49//1 53//1 54//1
f 49//1 54//1 50//1
f 52//2 55//2 51//2
f 52//2 56//2 55//2
f 49//3 51//3 55//3
f 49//3 55//3 53//3
f 54//4 52//4 50//4
f 54//4 56//4 52//4
f 53//1 57//1 58//1
f 53//1 58//1 54//1
f 56//2 59//2 55//2
f 56//2 60//2 59//2
f 53//3 55//3 59//3
f 53//3 59//3 57//3
f 59//6 58//6 57//6
f 59//6 60//6 58//6
f 40//1 39//1 26//1
f 40//1 26//1 25//1
f 62//2 43//2 44//2
f 62//2 61//2 43//2
f 40//5 25//5 62//5
f 40//5 62//5 44//5
f 43//6 26//6 39//6
f 43//6 61//6 26//6
f 46//1 50//1 30//1
f 46//1 30//1 29//1
f 64//2 52//2 48//2
f 64//2 63//2 52//2
f 46//5 29//5 64//5
f 46//5 64//5 48//5
f 52//6 30//6 50//6
f 52//6 63//6 30//6
f 54//1 58//1 34//1
f 54//1 34//1 33//1
f 66//2 60//2 56//2
f 66//2 65//2 60//2
f 54//5 33//5 66//5
f 54//5 66//5 56//5
f 60//6 34//6 58//6
f 60//6 65//6 34//6
f 25//5 27//5 67//5
f 25//5 67//5 62//5
f 26//1 29//1 31//1
f 26//1 31//1 28//1
f 69//2 64//2 61//2
f 69//2 68//2 64//2
f 26//3 61//3 64//3
f 26//3 64//3 29//3
f 31//4 69//4 28//4
f 31//4 68//4 69//4
f 30//1 33//1 35//1
f 30//1 35//1 32//1
f 71//2 66//2 63//2
f 71//2 70//2 66//2
f 30//3 63//3 66//3
f 30//3 66//3 33//3
f 35//4 71//4 32//4
f 35//4 70//4 71//4
f 65//6 36//6 34//6
f 65//6 72//6 36//6
f 27//1 28//1 73//1
f 27//1 73//1 74//1
f 76//2 69//2 67//2
f 76//2 75//2 69//2
f 27//5 74//5 76//5
f 27//5 76//5 67//5
f 69//6 73//6 28//6
f 69//6 75//6 73//6
f 31//1 32//1 77//1
f 31//1 77//1 78//1
f 80//2 71//2 68//2
f 80//2 79//2 71//2
f 31//5 78//5 80//5
f 31//5 80//5 68//5
f 71//6 77//6 32//6
f 71//6 79//6 77//6
f 35//1 36//1 81//1
f 35//1 81//1 82//1
f 84//2 72//2 70//2
f 84//2 83//2 72//2
f 35//5 82//5 84//5
f 35//5 84//5 70//5
f 72//6 81//6 36//6
f 72//6 83//6 81//6
f 74//1 73//1 85//1
f 74//1 85//1 86//1
f 88//2 75//2 76//2
f 88//2 87//2 75//2
f 85//4 88//4 86//4
f 85//4 87//4 88//4
f 74//5 86//5 88//5
f 74//5 88//5 76//5
f 73//1 78//1 89//1
f 73//1 89//1 85//1
f 87//2 80//2 75//2
f 87//2 90//2 80//2
f 73//3 75//3 80//3
f 73//3 80//3 78//3
f 89//4 87//4 85//4
f 89//4 90//4 87//4
f 78//1 77//1 91//1
f 78//1 91//1 89//1
f 90//2 79//2 80//2
f 90//2 92//2 79//2
f 91//4 90//4 89//4
f 91//4 92//4 90//4
f 77//1 82//1 93//1
f 77//1 93//1 91//1
f 92//2 84//2 79//2
f 92//2 94//2 84//2
f 77//3 79//3 84//3
f 77//3 84//3 82//3
f 93//4 92//4 91//4
f 93//4 94//4 92//4
f 82//1 81//1 95//1
f 82//1 95//1 93//1
f 94//2 83//2 84//2
f 94//2 96//2 83//2
f 95//4 94//4 93//4
f 95//4 96//4 94//4
f 83//6 95//6 81//6
f 83//6 96//6 95//6
f 62//3 97//3 98//3
f 62//3 98//3 61//3
f 69//4 99//4 67//4
f 69//4 100//4 99//4
f 62//5 67//5 99//5
f 62//5 99//5 97//5
f 98//6 69//6 61//6
f 98//6 100//6 69//6
f 64//3 101//3 102//3
f 64//3 102//3 63//3
f 71//4 103//4 68//4
f 71//4 104//4 103//4
f 64//5 68//5 103//5
f 64//5 103//5 101//5
f 102//6 71//6 63//6
f 102//6 104//6 71//6
f 66//3 105//3 106//3
f 66//3 106//3 65//3
f 72//4 107//4 70//4
f 72//4 108//4 107//4
f 66//5 70//5 107//5
f 66//5 107//5 105//5
f 106//6 72//6 65//6
f 106//6 108//6 72//6
f 112//2 110//2 109//2
f 112//2 111//2 110//2
f 97//3 109//3 110//3
f 97//3 110//3 98//3
f 100//4 112//4 99//4
f 100//4 111//4 112//4
f 97//5 99//5 112//5
f 97//5 112//5 109//5
f 98//1 101//1 103//1
f 98//1 103//1 100//1
f 111//2 113//2 110//2
f 111//2 114//2 113//2
f 98//3 110//3 113//3
f 98//3 113//3 101//3
f 103//4 111//4 100//4
f 103//4 114//4 111//4
f 114//2 115//2 113//2
f 114//2 116//2 115//2
f 101//3 113//3 115//3
f 101//3 115//3 102//3
f 104//4 114//4 103//4
f 104//4 116//4 114//4
f 102//1 105//1 107//1
f 102//1 107//1 104//1
f 116//2 117//2 115//2
f 116//2 118//2 117//2
f 102//3 115//3 117//3
f 102//3 117//3 105//3
f 107//4 116//4 104//4
f 107//4 118//4 116//4
f 118//2 119//2 117//2
f 118//2 120//2 119//2
f 105//3 117//3 119//3
f 105//3 119//3 106//3
f 108//4 118//4 107//4
f 108//4 120//4 118//4
f 119//6 108//6 106//6
f 119//6 120//6 108//6
